<svg xmlns="http://www.w3.org/2000/svg" width="1500" height="480" font-family="DejaVu Sans, Arial, sans-serif" viewBox="0 0 1500 480">
<rect width="1500" height="480" fill="white"/>
<text x="750.0" y="28" text-anchor="middle" font-size="19" font-weight="bold">OSCAR INT2 decode — per-layer kernel sequence (Qwen3-8B), GRAPH ON</text>
<text x="750.0" y="49" text-anchor="middle" font-size="13" fill="#444">batch 1 · seq 16k · CUDA-graph replay (launch gaps removed) · 1 layer ≈ 661 µs · this figure shows ONE layer (the step repeats it × 36) · bars duration-proportional</text>
<rect x="60" y="66" width="15" height="15" fill="#4878cf" stroke="black" stroke-width="0.6"/>
<text x="81" y="78" font-size="12" fill="#333">Dense GEMM (model — not OSCAR)</text>
<rect x="298.0" y="66" width="15" height="15" fill="#7fb069" stroke="black" stroke-width="0.6"/>
<text x="319.0" y="78" font-size="12" fill="#333">HP-window attention</text>
<rect x="459.0" y="66" width="15" height="15" fill="#d1495b" stroke="black" stroke-width="0.6"/>
<text x="480.0" y="78" font-size="12" fill="#333">OSCAR-specific (rotation / INT2 / merge)</text>
<rect x="767.0" y="66" width="15" height="15" fill="#9e9e9e" stroke="black" stroke-width="0.6"/>
<text x="788.0" y="78" font-size="12" fill="#333">Norm</text>
<rect x="823.0" y="66" width="15" height="15" fill="#cccccc" stroke="black" stroke-width="0.6"/>
<text x="844.0" y="78" font-size="12" fill="#333">RoPE / store / misc</text>
<line x1="73.7" y1="220" x2="1446.3" y2="220" stroke="#999"/>
<line x1="73.7" y1="220" x2="73.7" y2="225" stroke="#999"/>
<text x="73.7" y="239" text-anchor="middle" font-size="11" fill="#777">0</text>
<line x1="283.0" y1="220" x2="283.0" y2="225" stroke="#999"/>
<text x="283.0" y="239" text-anchor="middle" font-size="11" fill="#777">100</text>
<line x1="492.3" y1="220" x2="492.3" y2="225" stroke="#999"/>
<text x="492.3" y="239" text-anchor="middle" font-size="11" fill="#777">200</text>
<line x1="701.6" y1="220" x2="701.6" y2="225" stroke="#999"/>
<text x="701.6" y="239" text-anchor="middle" font-size="11" fill="#777">300</text>
<line x1="910.9" y1="220" x2="910.9" y2="225" stroke="#999"/>
<text x="910.9" y="239" text-anchor="middle" font-size="11" fill="#777">400</text>
<line x1="1120.2" y1="220" x2="1120.2" y2="225" stroke="#999"/>
<text x="1120.2" y="239" text-anchor="middle" font-size="11" fill="#777">500</text>
<line x1="1329.5" y1="220" x2="1329.5" y2="225" stroke="#999"/>
<text x="1329.5" y="239" text-anchor="middle" font-size="11" fill="#777">600</text>
<text x="760.0" y="257" text-anchor="middle" font-size="12" fill="#444">time within one decoder layer (µs) — kernels packed back-to-back under graph replay</text>
<rect x="73.7" y="170" width="5.6" height="44" fill="#9e9e9e" stroke="black" stroke-width="0.6"/>
<rect x="79.3" y="170" width="150.6" height="44" fill="#4878cf" stroke="black" stroke-width="0.6"/>
<line x1="154.6" y1="170" x2="154.6" y2="165.0" stroke="#bbb" stroke-width="0.5"/>
<text x="154.6" y="162.0" text-anchor="middle" font-size="12" fill="#222" font-weight="bold">2</text>
<rect x="229.8" y="170" width="5.1" height="44" fill="#4878cf" stroke="black" stroke-width="0.6"/>
<rect x="234.9" y="170" width="3.3" height="44" fill="#9e9e9e" stroke="black" stroke-width="0.6"/>
<rect x="238.2" y="170" width="3.9" height="44" fill="#cccccc" stroke="black" stroke-width="0.6"/>
<rect x="242.1" y="170" width="3.3" height="44" fill="#cccccc" stroke="black" stroke-width="0.6"/>
<rect x="245.4" y="170" width="7.0" height="44" fill="#d1495b" stroke="black" stroke-width="0.6"/>
<line x1="248.9" y1="170" x2="248.9" y2="149.0" stroke="#bbb" stroke-width="0.5"/>
<text x="248.9" y="146.0" text-anchor="middle" font-size="12" fill="#d1495b" font-weight="bold">7</text>
<rect x="252.4" y="170" width="3.0" height="44" fill="#cccccc" stroke="black" stroke-width="0.6"/>
<rect x="255.4" y="170" width="6.8" height="44" fill="#d1495b" stroke="black" stroke-width="0.6"/>
<line x1="258.9" y1="170" x2="258.9" y2="133.0" stroke="#bbb" stroke-width="0.5"/>
<text x="258.9" y="130.0" text-anchor="middle" font-size="12" fill="#d1495b" font-weight="bold">9</text>
<rect x="262.3" y="170" width="2.5" height="44" fill="#cccccc" stroke="black" stroke-width="0.6"/>
<rect x="264.8" y="170" width="14.2" height="44" fill="#7fb069" stroke="black" stroke-width="0.6"/>
<line x1="271.9" y1="170" x2="271.9" y2="165.0" stroke="#bbb" stroke-width="0.5"/>
<text x="271.9" y="162.0" text-anchor="middle" font-size="12" fill="#222" font-weight="bold">11</text>
<rect x="279.0" y="170" width="106.0" height="44" fill="#d1495b" stroke="black" stroke-width="0.6"/>
<line x1="332.0" y1="170" x2="332.0" y2="149.0" stroke="#bbb" stroke-width="0.5"/>
<text x="332.0" y="146.0" text-anchor="middle" font-size="12" fill="#d1495b" font-weight="bold">12</text>
<rect x="385.0" y="170" width="12.1" height="44" fill="#d1495b" stroke="black" stroke-width="0.6"/>
<line x1="391.1" y1="170" x2="391.1" y2="133.0" stroke="#bbb" stroke-width="0.5"/>
<text x="391.1" y="130.0" text-anchor="middle" font-size="12" fill="#d1495b" font-weight="bold">13</text>
<rect x="397.2" y="170" width="6.7" height="44" fill="#d1495b" stroke="black" stroke-width="0.6"/>
<line x1="400.5" y1="170" x2="400.5" y2="165.0" stroke="#bbb" stroke-width="0.5"/>
<text x="400.5" y="162.0" text-anchor="middle" font-size="12" fill="#d1495b" font-weight="bold">14</text>
<rect x="403.9" y="170" width="2.6" height="44" fill="#cccccc" stroke="black" stroke-width="0.6"/>
<rect x="406.5" y="170" width="105.0" height="44" fill="#4878cf" stroke="black" stroke-width="0.6"/>
<line x1="458.9" y1="170" x2="458.9" y2="149.0" stroke="#bbb" stroke-width="0.5"/>
<text x="458.9" y="146.0" text-anchor="middle" font-size="12" fill="#222" font-weight="bold">16</text>
<rect x="511.4" y="170" width="6.5" height="44" fill="#9e9e9e" stroke="black" stroke-width="0.6"/>
<rect x="517.9" y="170" width="585.8" height="44" fill="#4878cf" stroke="black" stroke-width="0.6"/>
<line x1="810.8" y1="170" x2="810.8" y2="133.0" stroke="#bbb" stroke-width="0.5"/>
<text x="810.8" y="130.0" text-anchor="middle" font-size="12" fill="#222" font-weight="bold">18</text>
<rect x="1103.8" y="170" width="11.3" height="44" fill="#cccccc" stroke="black" stroke-width="0.6"/>
<rect x="1115.0" y="170" width="331.3" height="44" fill="#4878cf" stroke="black" stroke-width="0.6"/>
<line x1="1280.6" y1="170" x2="1280.6" y2="165.0" stroke="#bbb" stroke-width="0.5"/>
<text x="1280.6" y="162.0" text-anchor="middle" font-size="12" fill="#222" font-weight="bold">20</text>
<text x="60" y="274" font-size="13" font-weight="bold" fill="#333">Kernel legend (all kernels) — numbered ones are marked on the bar; small misc/norm kernels are bars only</text>
<rect x="60" y="282" width="11" height="11" fill="#9e9e9e" stroke="black" stroke-width="0.5"/>
<text x="77" y="292" font-size="12" fill="#888">·   RMSNorm (+residual)  ·  2.7µs</text>
<rect x="60" y="301" width="11" height="11" fill="#4878cf" stroke="black" stroke-width="0.5"/>
<text x="77" y="311" font-size="12" fill="#333">2.  QKV proj GEMM  ·  71.9µs</text>
<rect x="60" y="320" width="11" height="11" fill="#4878cf" stroke="black" stroke-width="0.5"/>
<text x="77" y="330" font-size="12" fill="#888">·   splitK reduce  ·  2.4µs</text>
<rect x="60" y="339" width="11" height="11" fill="#9e9e9e" stroke="black" stroke-width="0.5"/>
<text x="77" y="349" font-size="12" fill="#888">·   q/k-norm  ·  1.6µs</text>
<rect x="60" y="358" width="11" height="11" fill="#cccccc" stroke="black" stroke-width="0.5"/>
<text x="77" y="368" font-size="12" fill="#888">·   RoPE  ·  1.9µs</text>
<rect x="60" y="377" width="11" height="11" fill="#cccccc" stroke="black" stroke-width="0.5"/>
<text x="77" y="387" font-size="12" fill="#888">·   elementwise (idx/init)  ·  1.6µs</text>
<rect x="60" y="396" width="11" height="11" fill="#d1495b" stroke="black" stroke-width="0.5"/>
<text x="77" y="406" font-size="12" fill="#d1495b" font-weight="bold">7.  [OSCAR] rotate / V-absorb GEMM  ·  3.4µs</text>
<rect x="540" y="282" width="11" height="11" fill="#cccccc" stroke="black" stroke-width="0.5"/>
<text x="557" y="292" font-size="12" fill="#888">·   store K/V -&gt; HP win  ·  1.4µs</text>
<rect x="540" y="301" width="11" height="11" fill="#d1495b" stroke="black" stroke-width="0.5"/>
<text x="557" y="311" font-size="12" fill="#d1495b" font-weight="bold">9.  [OSCAR] rotate / V-absorb GEMM  ·  3.3µs</text>
<rect x="540" y="320" width="11" height="11" fill="#cccccc" stroke="black" stroke-width="0.5"/>
<text x="557" y="330" font-size="12" fill="#888">·   elementwise (idx/init)  ·  1.2µs</text>
<rect x="540" y="339" width="11" height="11" fill="#7fb069" stroke="black" stroke-width="0.5"/>
<text x="557" y="349" font-size="12" fill="#333">11.  HP-window attn  ·  6.8µs</text>
<rect x="540" y="358" width="11" height="11" fill="#d1495b" stroke="black" stroke-width="0.5"/>
<text x="557" y="368" font-size="12" fill="#d1495b" font-weight="bold">12.  [OSCAR] INT2-KV attn  ·  50.7µs</text>
<rect x="540" y="377" width="11" height="11" fill="#d1495b" stroke="black" stroke-width="0.5"/>
<text x="557" y="387" font-size="12" fill="#d1495b" font-weight="bold">13.  [OSCAR] merge HP+INT2  ·  5.8µs</text>
<rect x="540" y="396" width="11" height="11" fill="#d1495b" stroke="black" stroke-width="0.5"/>
<text x="557" y="406" font-size="12" fill="#d1495b" font-weight="bold">14.  [OSCAR] rotate / V-absorb GEMM  ·  3.2µs</text>
<rect x="1010" y="282" width="11" height="11" fill="#cccccc" stroke="black" stroke-width="0.5"/>
<text x="1027" y="292" font-size="12" fill="#888">·   memcpy  ·  1.2µs</text>
<rect x="1010" y="301" width="11" height="11" fill="#4878cf" stroke="black" stroke-width="0.5"/>
<text x="1027" y="311" font-size="12" fill="#333">16.  o_proj GEMM  ·  50.1µs</text>
<rect x="1010" y="320" width="11" height="11" fill="#9e9e9e" stroke="black" stroke-width="0.5"/>
<text x="1027" y="330" font-size="12" fill="#888">·   RMSNorm (+residual)  ·  3.1µs</text>
<rect x="1010" y="339" width="11" height="11" fill="#4878cf" stroke="black" stroke-width="0.5"/>
<text x="1027" y="349" font-size="12" fill="#333">18.  gate+up proj GEMM  ·  279.9µs</text>
<rect x="1010" y="358" width="11" height="11" fill="#cccccc" stroke="black" stroke-width="0.5"/>
<text x="1027" y="368" font-size="12" fill="#888">·   SwiGLU (silu*up)  ·  5.4µs</text>
<rect x="1010" y="377" width="11" height="11" fill="#4878cf" stroke="black" stroke-width="0.5"/>
<text x="1027" y="387" font-size="12" fill="#333">20.  down proj GEMM  ·  158.3µs</text>
<text x="60" y="428" font-size="12" fill="#333" font-weight="bold">Full decode STEP ≈ 25.6 ms = 36 × layer (23.7 ms) + 1.9 ms per-step (LM head 1.66 ms + sampling/embed) — the LM head runs ONCE/step, not per layer.</text>
<text x="60" y="446" font-size="12" fill="#333">Per layer: GPU busy ≈ 656 µs ≈ wall 661 µs (util ~99%). vs eager ~1032 µs/layer: graph replay removed ~371 µs of host launch gaps.</text>
<text x="60" y="464" font-size="12" fill="#333">OSCAR-specific kernels (red) ≈ 66 µs (10% of busy): rotation GEMMs + INT2 attn + HP/INT2 merge + V-absorb — under graph replay, the honest serving cost (no launch overhead).</text>
</svg>