<svg xmlns="http://www.w3.org/2000/svg" width="1500" height="600" font-family="DejaVu Sans, Arial, sans-serif" viewBox="0 0 1500 600">
<rect width="1500" height="600" fill="white"/>
<text x="750.0" y="30" text-anchor="middle" font-size="19" font-weight="bold">OSCAR INT2 decode — per-layer kernel launch sequence (Qwen3-8B)</text>
<text x="750.0" y="52" text-anchor="middle" font-size="13" fill="#444">batch size 1 · seq len 16k · 1 decoder layer ≈ 1032 µs wall · one decode step = this block × 36 layers · bars are duration-proportional</text>
<rect x="60" y="74" width="16" height="16" fill="#4878cf" stroke="black" stroke-width="0.6"/>
<text x="82" y="87" font-size="12" fill="#333">Dense GEMM (model — not OSCAR)</text>
<rect x="360" y="74" width="16" height="16" fill="#7fb069" stroke="black" stroke-width="0.6"/>
<text x="382" y="87" font-size="12" fill="#333">HP-window attention</text>
<rect x="560" y="74" width="16" height="16" fill="#d1495b" stroke="black" stroke-width="0.6"/>
<text x="582" y="87" font-size="12" fill="#333">OSCAR-specific (rotation / INT2 / merge)</text>
<rect x="900" y="74" width="16" height="16" fill="#9e9e9e" stroke="black" stroke-width="0.6"/>
<text x="922" y="87" font-size="12" fill="#333">Norm</text>
<rect x="1010" y="74" width="16" height="16" fill="#cccccc" stroke="black" stroke-width="0.6"/>
<text x="1032" y="87" font-size="12" fill="#333">RoPE / store / misc</text>
<rect x="98.5" y="150" width="131.4" height="150" fill="#000" opacity="0.035"/>
<text x="164.1" y="170" text-anchor="middle" font-size="13" font-weight="bold" fill="#333">A · Attention input</text>
<rect x="241.3" y="150" width="300.7" height="150" fill="#000" opacity="0.035"/>
<text x="391.6" y="170" text-anchor="middle" font-size="13" font-weight="bold" fill="#333">B · Attention core</text>
<rect x="543.2" y="150" width="66.3" height="150" fill="#000" opacity="0.035"/>
<text x="576.4" y="170" text-anchor="middle" font-size="13" font-weight="bold" fill="#333">C · Attn output</text>
<rect x="638.2" y="150" width="203.8" height="150" fill="#000" opacity="0.035"/>
<text x="740.1" y="170" text-anchor="middle" font-size="13" font-weight="bold" fill="#333">D · MLP</text>
<line x1="98.5" y1="292" x2="1421.5" y2="292" stroke="#999" stroke-width="1"/>
<line x1="98.5" y1="292" x2="98.5" y2="298" stroke="#999"/>
<text x="98.5" y="312" text-anchor="middle" font-size="11" fill="#666">0</text>
<line x1="226.7" y1="292" x2="226.7" y2="298" stroke="#999"/>
<text x="226.7" y="312" text-anchor="middle" font-size="11" fill="#666">100</text>
<line x1="354.9" y1="292" x2="354.9" y2="298" stroke="#999"/>
<text x="354.9" y="312" text-anchor="middle" font-size="11" fill="#666">200</text>
<line x1="483.1" y1="292" x2="483.1" y2="298" stroke="#999"/>
<text x="483.1" y="312" text-anchor="middle" font-size="11" fill="#666">300</text>
<line x1="611.3" y1="292" x2="611.3" y2="298" stroke="#999"/>
<text x="611.3" y="312" text-anchor="middle" font-size="11" fill="#666">400</text>
<line x1="739.5" y1="292" x2="739.5" y2="298" stroke="#999"/>
<text x="739.5" y="312" text-anchor="middle" font-size="11" fill="#666">500</text>
<line x1="867.6" y1="292" x2="867.6" y2="298" stroke="#999"/>
<text x="867.6" y="312" text-anchor="middle" font-size="11" fill="#666">600</text>
<line x1="995.8" y1="292" x2="995.8" y2="298" stroke="#999"/>
<text x="995.8" y="312" text-anchor="middle" font-size="11" fill="#666">700</text>
<line x1="1124.0" y1="292" x2="1124.0" y2="298" stroke="#999"/>
<text x="1124.0" y="312" text-anchor="middle" font-size="11" fill="#666">800</text>
<line x1="1252.2" y1="292" x2="1252.2" y2="298" stroke="#999"/>
<text x="1252.2" y="312" text-anchor="middle" font-size="11" fill="#666">900</text>
<line x1="1380.4" y1="292" x2="1380.4" y2="298" stroke="#999"/>
<text x="1380.4" y="312" text-anchor="middle" font-size="11" fill="#666">1000</text>
<text x="760.0" y="330" text-anchor="middle" font-size="12" fill="#444">time within one decoder layer (µs)</text>
<rect x="98.5" y="232" width="4.2" height="46" fill="#9e9e9e" stroke="black" stroke-width="0.6"/>
<line x1="100.6" y1="217" x2="100.6" y2="232" stroke="#bbb" stroke-width="0.6"/>
<text x="100.6" y="214" text-anchor="middle" font-size="11" fill="#222" font-weight="bold">1</text>
<rect x="103.7" y="232" width="94.8" height="46" fill="#4878cf" stroke="black" stroke-width="0.6"/>
<line x1="150.1" y1="217" x2="151.1" y2="232" stroke="#bbb" stroke-width="0.6"/>
<text x="150.1" y="214" text-anchor="middle" font-size="11" fill="#222" font-weight="bold">2</text>
<rect x="199.5" y="232" width="3.9" height="46" fill="#4878cf" stroke="black" stroke-width="0.6"/>
<line x1="165.1" y1="217" x2="201.4" y2="232" stroke="#bbb" stroke-width="0.6"/>
<text x="165.1" y="214" text-anchor="middle" font-size="11" fill="#222" font-weight="bold">3</text>
<rect x="204.4" y="232" width="2.7" height="46" fill="#9e9e9e" stroke="black" stroke-width="0.6"/>
<line x1="180.1" y1="217" x2="205.8" y2="232" stroke="#bbb" stroke-width="0.6"/>
<text x="180.1" y="214" text-anchor="middle" font-size="11" fill="#222" font-weight="bold">4</text>
<rect x="208.2" y="232" width="2.7" height="46" fill="#cccccc" stroke="black" stroke-width="0.6"/>
<line x1="195.1" y1="217" x2="209.5" y2="232" stroke="#bbb" stroke-width="0.6"/>
<text x="195.1" y="214" text-anchor="middle" font-size="11" fill="#222" font-weight="bold">5</text>
<rect x="212.1" y="232" width="2.3" height="46" fill="#cccccc" stroke="black" stroke-width="0.6"/>
<line x1="210.1" y1="217" x2="213.2" y2="232" stroke="#bbb" stroke-width="0.6"/>
<text x="210.1" y="214" text-anchor="middle" font-size="11" fill="#222" font-weight="bold">6</text>
<rect x="215.4" y="232" width="5.1" height="46" fill="#d1495b" stroke="black" stroke-width="0.6"/>
<line x1="225.1" y1="217" x2="218.0" y2="232" stroke="#bbb" stroke-width="0.6"/>
<text x="225.1" y="214" text-anchor="middle" font-size="11" fill="#222" font-weight="bold">7</text>
<rect x="221.6" y="232" width="2.1" height="46" fill="#cccccc" stroke="black" stroke-width="0.6"/>
<line x1="240.1" y1="217" x2="222.7" y2="232" stroke="#bbb" stroke-width="0.6"/>
<text x="240.1" y="214" text-anchor="middle" font-size="11" fill="#222" font-weight="bold">8</text>
<rect x="224.9" y="232" width="4.9" height="46" fill="#d1495b" stroke="black" stroke-width="0.6"/>
<line x1="255.1" y1="217" x2="227.3" y2="232" stroke="#bbb" stroke-width="0.6"/>
<text x="255.1" y="214" text-anchor="middle" font-size="11" fill="#222" font-weight="bold">9</text>
<rect x="241.3" y="232" width="1.8" height="46" fill="#cccccc" stroke="black" stroke-width="0.6"/>
<line x1="270.1" y1="217" x2="242.2" y2="232" stroke="#bbb" stroke-width="0.6"/>
<text x="270.1" y="214" text-anchor="middle" font-size="11" fill="#222" font-weight="bold">10</text>
<rect x="365.2" y="232" width="9.1" height="46" fill="#7fb069" stroke="black" stroke-width="0.6"/>
<line x1="369.8" y1="217" x2="369.8" y2="232" stroke="#bbb" stroke-width="0.6"/>
<text x="369.8" y="214" text-anchor="middle" font-size="11" fill="#222" font-weight="bold">11</text>
<rect x="473.2" y="232" width="68.8" height="46" fill="#d1495b" stroke="black" stroke-width="0.6"/>
<line x1="507.6" y1="217" x2="507.6" y2="232" stroke="#bbb" stroke-width="0.6"/>
<text x="507.6" y="214" text-anchor="middle" font-size="11" fill="#222" font-weight="bold">12</text>
<rect x="543.2" y="232" width="8.5" height="46" fill="#d1495b" stroke="black" stroke-width="0.6"/>
<line x1="547.5" y1="217" x2="547.5" y2="232" stroke="#bbb" stroke-width="0.6"/>
<text x="547.5" y="214" text-anchor="middle" font-size="11" fill="#222" font-weight="bold">13</text>
<rect x="604.5" y="232" width="5.0" height="46" fill="#d1495b" stroke="black" stroke-width="0.6"/>
<line x1="607.0" y1="217" x2="607.0" y2="232" stroke="#bbb" stroke-width="0.6"/>
<text x="607.0" y="214" text-anchor="middle" font-size="11" fill="#222" font-weight="bold">14</text>
<rect x="638.2" y="232" width="1.9" height="46" fill="#cccccc" stroke="black" stroke-width="0.6"/>
<line x1="639.2" y1="217" x2="639.2" y2="232" stroke="#bbb" stroke-width="0.6"/>
<text x="639.2" y="214" text-anchor="middle" font-size="11" fill="#222" font-weight="bold">15</text>
<rect x="714.1" y="232" width="65.2" height="46" fill="#4878cf" stroke="black" stroke-width="0.6"/>
<line x1="746.7" y1="217" x2="746.7" y2="232" stroke="#bbb" stroke-width="0.6"/>
<text x="746.7" y="214" text-anchor="middle" font-size="11" fill="#222" font-weight="bold">16</text>
<rect x="785.0" y="232" width="4.7" height="46" fill="#9e9e9e" stroke="black" stroke-width="0.6"/>
<line x1="787.4" y1="217" x2="787.4" y2="232" stroke="#bbb" stroke-width="0.6"/>
<text x="787.4" y="214" text-anchor="middle" font-size="11" fill="#222" font-weight="bold">17</text>
<rect x="841.2" y="232" width="1.4" height="46" fill="#cccccc" stroke="black" stroke-width="0.6"/>
<line x1="841.9" y1="217" x2="841.9" y2="232" stroke="#bbb" stroke-width="0.6"/>
<text x="841.9" y="214" text-anchor="middle" font-size="11" fill="#222" font-weight="bold">18</text>
<rect x="849.2" y="232" width="360.4" height="46" fill="#4878cf" stroke="black" stroke-width="0.6"/>
<line x1="1029.4" y1="217" x2="1029.4" y2="232" stroke="#bbb" stroke-width="0.6"/>
<text x="1029.4" y="214" text-anchor="middle" font-size="11" fill="#222" font-weight="bold">19</text>
<rect x="1210.8" y="232" width="8.1" height="46" fill="#cccccc" stroke="black" stroke-width="0.6"/>
<line x1="1214.8" y1="217" x2="1214.8" y2="232" stroke="#bbb" stroke-width="0.6"/>
<text x="1214.8" y="214" text-anchor="middle" font-size="11" fill="#222" font-weight="bold">20</text>
<rect x="1220.0" y="232" width="201.5" height="46" fill="#4878cf" stroke="black" stroke-width="0.6"/>
<line x1="1320.8" y1="217" x2="1320.8" y2="232" stroke="#bbb" stroke-width="0.6"/>
<text x="1320.8" y="214" text-anchor="middle" font-size="11" fill="#222" font-weight="bold">21</text>
<text x="60" y="356" font-size="13" font-weight="bold" fill="#333">Step legend  (number → kernel · duration)</text>
<rect x="60" y="372" width="11" height="11" fill="#9e9e9e" stroke="black" stroke-width="0.5"/>
<text x="77" y="382" font-size="12" fill="#333">1.  RMSNorm (+residual)  ·  3.3µs</text>
<rect x="60" y="391" width="11" height="11" fill="#4878cf" stroke="black" stroke-width="0.5"/>
<text x="77" y="401" font-size="12" fill="#333">2.  QKV proj GEMM  ·  73.9µs</text>
<rect x="60" y="410" width="11" height="11" fill="#4878cf" stroke="black" stroke-width="0.5"/>
<text x="77" y="420" font-size="12" fill="#333">3.  splitK reduce  ·  3µs</text>
<rect x="60" y="429" width="11" height="11" fill="#9e9e9e" stroke="black" stroke-width="0.5"/>
<text x="77" y="439" font-size="12" fill="#333">4.  q/k-norm  ·  2.1µs</text>
<rect x="60" y="448" width="11" height="11" fill="#cccccc" stroke="black" stroke-width="0.5"/>
<text x="77" y="458" font-size="12" fill="#333">5.  RoPE  ·  2.1µs</text>
<rect x="60" y="467" width="11" height="11" fill="#cccccc" stroke="black" stroke-width="0.5"/>
<text x="77" y="477" font-size="12" fill="#333">6.  cache idx update  ·  1.8µs</text>
<rect x="60" y="486" width="11" height="11" fill="#d1495b" stroke="black" stroke-width="0.5"/>
<text x="77" y="496" font-size="12" fill="#d1495b" font-weight="bold">7.  [OSCAR] rotate Q/K (R)  ·  4µs</text>
<rect x="560" y="372" width="11" height="11" fill="#cccccc" stroke="black" stroke-width="0.5"/>
<text x="577" y="382" font-size="12" fill="#333">8.  store K/V -&gt; HP win  ·  1.6µs</text>
<rect x="560" y="391" width="11" height="11" fill="#d1495b" stroke="black" stroke-width="0.5"/>
<text x="577" y="401" font-size="12" fill="#d1495b" font-weight="bold">9.  [OSCAR] rotate Q/K (R)  ·  3.8µs</text>
<rect x="560" y="410" width="11" height="11" fill="#cccccc" stroke="black" stroke-width="0.5"/>
<text x="577" y="420" font-size="12" fill="#333">10.  init attn buf  ·  1.4µs</text>
<rect x="560" y="429" width="11" height="11" fill="#7fb069" stroke="black" stroke-width="0.5"/>
<text x="577" y="439" font-size="12" fill="#333">11.  HP-window attn  ·  7.1µs</text>
<rect x="560" y="448" width="11" height="11" fill="#d1495b" stroke="black" stroke-width="0.5"/>
<text x="577" y="458" font-size="12" fill="#d1495b" font-weight="bold">12.  [OSCAR] INT2-KV attn  ·  53.6µs</text>
<rect x="560" y="467" width="11" height="11" fill="#d1495b" stroke="black" stroke-width="0.5"/>
<text x="577" y="477" font-size="12" fill="#d1495b" font-weight="bold">13.  [OSCAR] merge HP+INT2  ·  6.6µs</text>
<rect x="560" y="486" width="11" height="11" fill="#d1495b" stroke="black" stroke-width="0.5"/>
<text x="577" y="496" font-size="12" fill="#d1495b" font-weight="bold">14.  o_proj prologue (V-rot absorb)  ·  3.9µs</text>
<rect x="1010" y="372" width="11" height="11" fill="#cccccc" stroke="black" stroke-width="0.5"/>
<text x="1027" y="382" font-size="12" fill="#333">15.  CUDA memcpy D2D  ·  1.5µs</text>
<rect x="1010" y="391" width="11" height="11" fill="#4878cf" stroke="black" stroke-width="0.5"/>
<text x="1027" y="401" font-size="12" fill="#333">16.  proj GEMM (o / down)  ·  50.9µs</text>
<rect x="1010" y="410" width="11" height="11" fill="#9e9e9e" stroke="black" stroke-width="0.5"/>
<text x="1027" y="420" font-size="12" fill="#333">17.  RMSNorm (+residual)  ·  3.7µs</text>
<rect x="1010" y="429" width="11" height="11" fill="#cccccc" stroke="black" stroke-width="0.5"/>
<text x="1027" y="439" font-size="12" fill="#333">18.  CUDA memset  ·  0.6µs</text>
<rect x="1010" y="448" width="11" height="11" fill="#4878cf" stroke="black" stroke-width="0.5"/>
<text x="1027" y="458" font-size="12" fill="#333">19.  gate+up proj GEMM  ·  281.1µs</text>
<rect x="1010" y="467" width="11" height="11" fill="#cccccc" stroke="black" stroke-width="0.5"/>
<text x="1027" y="477" font-size="12" fill="#333">20.  SwiGLU (silu*up)  ·  6.3µs</text>
<rect x="1010" y="486" width="11" height="11" fill="#4878cf" stroke="black" stroke-width="0.5"/>
<text x="1027" y="496" font-size="12" fill="#333">21.  proj GEMM (o / down)  ·  157.2µs</text>
<text x="60" y="532" font-size="12" fill="#333">Per layer: total GPU busy ≈ 670 µs · OSCAR-specific kernels (red) ≈ 72 µs (11%) across 5 extra kernels.</text>
<text x="60" y="550" font-size="12" fill="#333">Key inefficiency: OSCAR splits ONE attention into 3 kernels (HP-window + INT2-KV + merge) and adds Q/K rotation GEMMs — more kernel launches vs. a single fused BF16 decode attention.</text>
</svg>
