<svg xmlns="http://www.w3.org/2000/svg" width="1500" height="760" font-family="DejaVu Sans, Arial, sans-serif" viewBox="0 0 1500 760">
<rect width="1500" height="760" fill="white"/>
<text x="750.0" y="30" text-anchor="middle" font-size="19" font-weight="bold">OSCAR INT2 decode — per-layer kernel launch sequence (Qwen3-8B)</text>
<text x="750.0" y="52" text-anchor="middle" font-size="13" fill="#444">1 decoder layer ≈ 1032 µs wall · one decode step = this block × 36 layers · bars are duration-proportional</text>
<rect x="98.5" y="180" width="131.4" height="136" fill="#000" opacity="0.035"/>
<text x="164.1" y="198" text-anchor="middle" font-size="13" font-weight="bold" fill="#333">A · Attention input</text>
<rect x="241.3" y="180" width="300.7" height="136" fill="#000" opacity="0.035"/>
<text x="391.6" y="198" text-anchor="middle" font-size="13" font-weight="bold" fill="#333">B · Attention core</text>
<rect x="543.2" y="180" width="66.3" height="136" fill="#000" opacity="0.035"/>
<text x="576.4" y="198" text-anchor="middle" font-size="13" font-weight="bold" fill="#333">C · Attn output</text>
<rect x="638.2" y="180" width="203.8" height="136" fill="#000" opacity="0.035"/>
<text x="740.1" y="198" text-anchor="middle" font-size="13" font-weight="bold" fill="#333">D · MLP</text>
<line x1="98.5" y1="302" x2="1421.5" y2="302" stroke="#999" stroke-width="1"/>
<line x1="98.5" y1="302" x2="98.5" y2="308" stroke="#999"/>
<text x="98.5" y="322" text-anchor="middle" font-size="11" fill="#666">0</text>
<line x1="226.7" y1="302" x2="226.7" y2="308" stroke="#999"/>
<text x="226.7" y="322" text-anchor="middle" font-size="11" fill="#666">100</text>
<line x1="354.9" y1="302" x2="354.9" y2="308" stroke="#999"/>
<text x="354.9" y="322" text-anchor="middle" font-size="11" fill="#666">200</text>
<line x1="483.0" y1="302" x2="483.0" y2="308" stroke="#999"/>
<text x="483.0" y="322" text-anchor="middle" font-size="11" fill="#666">300</text>
<line x1="611.2" y1="302" x2="611.2" y2="308" stroke="#999"/>
<text x="611.2" y="322" text-anchor="middle" font-size="11" fill="#666">400</text>
<line x1="739.4" y1="302" x2="739.4" y2="308" stroke="#999"/>
<text x="739.4" y="322" text-anchor="middle" font-size="11" fill="#666">500</text>
<line x1="867.6" y1="302" x2="867.6" y2="308" stroke="#999"/>
<text x="867.6" y="322" text-anchor="middle" font-size="11" fill="#666">600</text>
<line x1="995.8" y1="302" x2="995.8" y2="308" stroke="#999"/>
<text x="995.8" y="322" text-anchor="middle" font-size="11" fill="#666">700</text>
<line x1="1124.0" y1="302" x2="1124.0" y2="308" stroke="#999"/>
<text x="1124.0" y="322" text-anchor="middle" font-size="11" fill="#666">800</text>
<line x1="1252.2" y1="302" x2="1252.2" y2="308" stroke="#999"/>
<text x="1252.2" y="322" text-anchor="middle" font-size="11" fill="#666">900</text>
<line x1="1380.4" y1="302" x2="1380.4" y2="308" stroke="#999"/>
<text x="1380.4" y="322" text-anchor="middle" font-size="11" fill="#666">1000</text>
<text x="760.0" y="340" text-anchor="middle" font-size="12" fill="#444">time within one decoder layer (µs)</text>
<rect x="98.5" y="250" width="4.2" height="46" fill="#9e9e9e" stroke="black" stroke-width="0.6"/>
<text x="100.6" y="244" text-anchor="middle" font-size="10" fill="#222">1</text>
<line x1="100.6" y1="296" x2="100.6" y2="345.0" stroke="#bbb" stroke-width="0.6"/>
<text x="100.6" y="356.0" text-anchor="middle" font-size="10" fill="#222">RMSNorm (+residual)</text>
<text x="100.6" y="368.0" text-anchor="middle" font-size="9" fill="#777">3.3µs</text>
<rect x="103.7" y="250" width="94.8" height="46" fill="#4878cf" stroke="black" stroke-width="0.6"/>
<text x="151.1" y="244" text-anchor="middle" font-size="10" fill="#222">2</text>
<line x1="151.1" y1="296" x2="151.1" y2="375.0" stroke="#bbb" stroke-width="0.6"/>
<text x="151.1" y="386.0" text-anchor="middle" font-size="10" fill="#222">QKV proj GEMM</text>
<text x="151.1" y="398.0" text-anchor="middle" font-size="9" fill="#777">73.9µs</text>
<rect x="199.5" y="250" width="3.9" height="46" fill="#4878cf" stroke="black" stroke-width="0.6"/>
<text x="201.4" y="244" text-anchor="middle" font-size="10" fill="#222">3</text>
<line x1="201.4" y1="296" x2="201.4" y2="405.0" stroke="#bbb" stroke-width="0.6"/>
<text x="201.4" y="416.0" text-anchor="middle" font-size="10" fill="#222">splitK reduce</text>
<text x="201.4" y="428.0" text-anchor="middle" font-size="9" fill="#777">3.0µs</text>
<rect x="204.4" y="250" width="2.7" height="46" fill="#9e9e9e" stroke="black" stroke-width="0.6"/>
<text x="205.8" y="244" text-anchor="middle" font-size="10" fill="#222">4</text>
<line x1="205.8" y1="296" x2="205.8" y2="345.0" stroke="#bbb" stroke-width="0.6"/>
<text x="205.8" y="356.0" text-anchor="middle" font-size="10" fill="#222">q/k-norm</text>
<text x="205.8" y="368.0" text-anchor="middle" font-size="9" fill="#777">2.1µs</text>
<rect x="208.2" y="250" width="2.7" height="46" fill="#cccccc" stroke="black" stroke-width="0.6"/>
<text x="209.6" y="244" text-anchor="middle" font-size="10" fill="#222">5</text>
<line x1="209.6" y1="296" x2="209.6" y2="375.0" stroke="#bbb" stroke-width="0.6"/>
<text x="209.6" y="386.0" text-anchor="middle" font-size="10" fill="#222">RoPE</text>
<text x="209.6" y="398.0" text-anchor="middle" font-size="9" fill="#777">2.1µs</text>
<rect x="212.1" y="250" width="2.3" height="46" fill="#cccccc" stroke="black" stroke-width="0.6"/>
<text x="213.2" y="244" text-anchor="middle" font-size="10" fill="#222">6</text>
<line x1="213.2" y1="296" x2="213.2" y2="405.0" stroke="#bbb" stroke-width="0.6"/>
<text x="213.2" y="416.0" text-anchor="middle" font-size="10" fill="#222">cache idx update</text>
<text x="213.2" y="428.0" text-anchor="middle" font-size="9" fill="#777">1.8µs</text>
<rect x="215.4" y="250" width="5.1" height="46" fill="#d1495b" stroke="black" stroke-width="0.6"/>
<text x="218.0" y="244" text-anchor="middle" font-size="10" fill="#222">7</text>
<line x1="218.0" y1="296" x2="218.0" y2="345.0" stroke="#bbb" stroke-width="0.6"/>
<text x="218.0" y="356.0" text-anchor="middle" font-size="10" fill="#d1495b" font-weight="bold">[OSCAR] rotate Q/K (R)</text>
<text x="218.0" y="368.0" text-anchor="middle" font-size="9" fill="#777">4.0µs</text>
<rect x="221.6" y="250" width="2.1" height="46" fill="#cccccc" stroke="black" stroke-width="0.6"/>
<text x="222.7" y="244" text-anchor="middle" font-size="10" fill="#222">8</text>
<line x1="222.7" y1="296" x2="222.7" y2="375.0" stroke="#bbb" stroke-width="0.6"/>
<text x="222.7" y="386.0" text-anchor="middle" font-size="10" fill="#222">store K/V -&gt; HP win</text>
<text x="222.7" y="398.0" text-anchor="middle" font-size="9" fill="#777">1.6µs</text>
<rect x="224.9" y="250" width="4.9" height="46" fill="#d1495b" stroke="black" stroke-width="0.6"/>
<text x="227.4" y="244" text-anchor="middle" font-size="10" fill="#222">9</text>
<line x1="227.4" y1="296" x2="227.4" y2="405.0" stroke="#bbb" stroke-width="0.6"/>
<text x="227.4" y="416.0" text-anchor="middle" font-size="10" fill="#d1495b" font-weight="bold">[OSCAR] rotate Q/K (R)</text>
<text x="227.4" y="428.0" text-anchor="middle" font-size="9" fill="#777">3.8µs</text>
<rect x="241.3" y="250" width="1.8" height="46" fill="#cccccc" stroke="black" stroke-width="0.6"/>
<text x="242.2" y="244" text-anchor="middle" font-size="10" fill="#222">10</text>
<line x1="242.2" y1="296" x2="242.2" y2="345.0" stroke="#bbb" stroke-width="0.6"/>
<text x="242.2" y="356.0" text-anchor="middle" font-size="10" fill="#222">init attn buf</text>
<text x="242.2" y="368.0" text-anchor="middle" font-size="9" fill="#777">1.4µs</text>
<rect x="365.2" y="250" width="9.1" height="46" fill="#7fb069" stroke="black" stroke-width="0.6"/>
<text x="369.8" y="244" text-anchor="middle" font-size="10" fill="#222">11</text>
<line x1="369.8" y1="296" x2="369.8" y2="375.0" stroke="#bbb" stroke-width="0.6"/>
<text x="369.8" y="386.0" text-anchor="middle" font-size="10" fill="#222">HP-window attn</text>
<text x="369.8" y="398.0" text-anchor="middle" font-size="9" fill="#777">7.1µs</text>
<rect x="473.2" y="250" width="68.8" height="46" fill="#d1495b" stroke="black" stroke-width="0.6"/>
<text x="507.6" y="244" text-anchor="middle" font-size="10" fill="#222">12</text>
<line x1="507.6" y1="296" x2="507.6" y2="405.0" stroke="#bbb" stroke-width="0.6"/>
<text x="507.6" y="416.0" text-anchor="middle" font-size="10" fill="#d1495b" font-weight="bold">[OSCAR] INT2-KV attn</text>
<text x="507.6" y="428.0" text-anchor="middle" font-size="9" fill="#777">53.6µs</text>
<rect x="543.2" y="250" width="8.5" height="46" fill="#d1495b" stroke="black" stroke-width="0.6"/>
<text x="547.5" y="244" text-anchor="middle" font-size="10" fill="#222">13</text>
<line x1="547.5" y1="296" x2="547.5" y2="345.0" stroke="#bbb" stroke-width="0.6"/>
<text x="547.5" y="356.0" text-anchor="middle" font-size="10" fill="#d1495b" font-weight="bold">[OSCAR] merge HP+INT2</text>
<text x="547.5" y="368.0" text-anchor="middle" font-size="9" fill="#777">6.6µs</text>
<rect x="604.5" y="250" width="5.0" height="46" fill="#d1495b" stroke="black" stroke-width="0.6"/>
<text x="607.0" y="244" text-anchor="middle" font-size="10" fill="#222">14</text>
<line x1="607.0" y1="296" x2="607.0" y2="375.0" stroke="#bbb" stroke-width="0.6"/>
<text x="607.0" y="386.0" text-anchor="middle" font-size="10" fill="#d1495b" font-weight="bold">o_proj prologue (V-rot absorb)</text>
<text x="607.0" y="398.0" text-anchor="middle" font-size="9" fill="#777">3.9µs</text>
<rect x="638.2" y="250" width="1.9" height="46" fill="#cccccc" stroke="black" stroke-width="0.6"/>
<text x="639.1" y="244" text-anchor="middle" font-size="10" fill="#222">15</text>
<line x1="639.1" y1="296" x2="639.1" y2="405.0" stroke="#bbb" stroke-width="0.6"/>
<text x="639.1" y="416.0" text-anchor="middle" font-size="10" fill="#222">[CUDA memcpy Device-to-D</text>
<text x="639.1" y="428.0" text-anchor="middle" font-size="9" fill="#777">1.5µs</text>
<rect x="714.1" y="250" width="65.2" height="46" fill="#4878cf" stroke="black" stroke-width="0.6"/>
<text x="746.7" y="244" text-anchor="middle" font-size="10" fill="#222">16</text>
<line x1="746.7" y1="296" x2="746.7" y2="345.0" stroke="#bbb" stroke-width="0.6"/>
<text x="746.7" y="356.0" text-anchor="middle" font-size="10" fill="#222">proj GEMM (o / down)</text>
<text x="746.7" y="368.0" text-anchor="middle" font-size="9" fill="#777">50.9µs</text>
<rect x="785.0" y="250" width="4.7" height="46" fill="#9e9e9e" stroke="black" stroke-width="0.6"/>
<text x="787.3" y="244" text-anchor="middle" font-size="10" fill="#222">17</text>
<line x1="787.3" y1="296" x2="787.3" y2="375.0" stroke="#bbb" stroke-width="0.6"/>
<text x="787.3" y="386.0" text-anchor="middle" font-size="10" fill="#222">RMSNorm (+residual)</text>
<text x="787.3" y="398.0" text-anchor="middle" font-size="9" fill="#777">3.7µs</text>
<rect x="841.2" y="250" width="1.4" height="46" fill="#cccccc" stroke="black" stroke-width="0.6"/>
<text x="841.9" y="244" text-anchor="middle" font-size="10" fill="#222">18</text>
<line x1="841.9" y1="296" x2="841.9" y2="405.0" stroke="#bbb" stroke-width="0.6"/>
<text x="841.9" y="416.0" text-anchor="middle" font-size="10" fill="#222">[CUDA memset]</text>
<text x="841.9" y="428.0" text-anchor="middle" font-size="9" fill="#777">0.6µs</text>
<rect x="849.2" y="250" width="360.4" height="46" fill="#4878cf" stroke="black" stroke-width="0.6"/>
<text x="1029.4" y="244" text-anchor="middle" font-size="10" fill="#222">19</text>
<line x1="1029.4" y1="296" x2="1029.4" y2="345.0" stroke="#bbb" stroke-width="0.6"/>
<text x="1029.4" y="356.0" text-anchor="middle" font-size="10" fill="#222">gate+up proj GEMM</text>
<text x="1029.4" y="368.0" text-anchor="middle" font-size="9" fill="#777">281.1µs</text>
<rect x="1210.8" y="250" width="8.1" height="46" fill="#cccccc" stroke="black" stroke-width="0.6"/>
<text x="1214.8" y="244" text-anchor="middle" font-size="10" fill="#222">20</text>
<line x1="1214.8" y1="296" x2="1214.8" y2="375.0" stroke="#bbb" stroke-width="0.6"/>
<text x="1214.8" y="386.0" text-anchor="middle" font-size="10" fill="#222">SwiGLU (silu*up)</text>
<text x="1214.8" y="398.0" text-anchor="middle" font-size="9" fill="#777">6.3µs</text>
<rect x="1220.0" y="250" width="201.5" height="46" fill="#4878cf" stroke="black" stroke-width="0.6"/>
<text x="1320.8" y="244" text-anchor="middle" font-size="10" fill="#222">21</text>
<line x1="1320.8" y1="296" x2="1320.8" y2="405.0" stroke="#bbb" stroke-width="0.6"/>
<text x="1320.8" y="416.0" text-anchor="middle" font-size="10" fill="#222">proj GEMM (o / down)</text>
<text x="1320.8" y="428.0" text-anchor="middle" font-size="9" fill="#777">157.2µs</text>
<rect x="60" y="78" width="16" height="16" fill="#4878cf" stroke="black" stroke-width="0.6"/>
<text x="82" y="91" font-size="12" fill="#333">Dense GEMM (model — not OSCAR)</text>
<rect x="300.0" y="78" width="16" height="16" fill="#7fb069" stroke="black" stroke-width="0.6"/>
<text x="322.0" y="91" font-size="12" fill="#333">HP-window attention</text>
<rect x="463.0" y="78" width="16" height="16" fill="#d1495b" stroke="black" stroke-width="0.6"/>
<text x="485.0" y="91" font-size="12" fill="#333">OSCAR-specific (rotation / INT2 / merge)</text>
<rect x="773.0" y="78" width="16" height="16" fill="#9e9e9e" stroke="black" stroke-width="0.6"/>
<text x="795.0" y="91" font-size="12" fill="#333">Norm</text>
<rect x="831.0" y="78" width="16" height="16" fill="#cccccc" stroke="black" stroke-width="0.6"/>
<text x="853.0" y="91" font-size="12" fill="#333">RoPE / store / misc</text>
<text x="60" y="720" font-size="12" fill="#333">Per layer: total GPU busy ≈ 670 µs · OSCAR-specific kernels (red) ≈ 72 µs (11%) across 5 extra kernels.</text>
<text x="60" y="738" font-size="12" fill="#333">Key inefficiency: OSCAR splits ONE attention into 3 kernels (HP-window + INT2-KV + merge) and adds Q/K rotation GEMMs — more kernel launches vs. a single fused BF16 decode attention.</text>
</svg>